<?xml version="1.0" encoding="utf-8"?>
<!-- Generator: Adobe Illustrator 27.7.0, SVG Export Plug-In . SVG Version: 6.00 Build 0)  -->
<svg version="1.1" id="Layer_1" xmlns="http://www.w3.org/2000/svg" xmlns:xlink="http://www.w3.org/1999/xlink" x="0px" y="0px"
	 viewBox="0 0 1920 1080" style="enable-background:new 0 0 1920 1080;" xml:space="preserve">
<style type="text/css">
	.st0{fill:#2B5933;}
	.st1{fill:#2C5933;}
	.st2{fill:#2C5A34;}
	.st3{fill:#2E5B35;}
	.st4{fill:#859F89;}
	.st5{fill:#5F8265;}
	.st6{fill:#B0C1B3;}
	.st7{fill:#C2CFC4;}
	.st8{fill:#A4B8A8;}
	.st9{fill:#9BB19F;}
	.st10{fill:#488152;}
	.st11{fill:#7B9880;}
	.st12{fill:#65866B;}
	.st13{fill:#498353;}
	.st14{fill:#498253;}
	.st15{fill:#488252;}
	.st16{fill:#E3E9E4;}
</style>
<g>
	<g>
		<path class="st0" d="M798.79,87.05c-16.52,0.55-33.06,0.77-49.56,1.77c-13.16,0.8-26.26,2.6-39.4,3.92
			c-8.75,0.88-17.49,1.86-26.26,2.45c-7.89,0.53-15.85,0.19-23.71,0.94c-13.48,1.28-26.88,3.31-40.35,4.66
			c-11.17,1.12-22.43,1.42-33.59,2.63c-9.81,1.06-19.53,2.95-29.31,4.32c-2.4,0.34-4.9,0.05-7.35,0.05
			c-0.06-0.57-0.12-1.15-0.18-1.72c3.19-0.91,6.36-1.93,9.58-2.7c11.44-2.72,22.88-5.44,34.36-8.01
			c16.18-3.62,32.4-7.04,48.58-10.68c6.1-1.37,12.06-3.35,18.16-4.67c6.32-1.36,12.77-2.1,19.11-3.39
			c10.91-2.23,21.75-4.84,32.68-6.98c8.64-1.69,17.35-3,26.06-4.3c16.41-2.45,32.83-4.84,49.27-7.13c9.12-1.27,18.27-2.25,27.4-3.41
			c5.91-0.75,11.8-1.59,17.71-2.39c3.31-0.02,6.63,0.12,9.92-0.12c1.25-0.09,2.44-1.05,3.65-1.62c7.07-0.52,14.14-1.03,21.21-1.55
			c14-1.03,28-2.1,42-3.1c12.56-0.89,25.13-1.83,37.7-2.52c17.28-0.94,34.58-1.68,51.87-2.48c5.9-0.27,11.81-0.56,17.72-0.73
			c20.14-0.58,40.28-1.04,60.42-1.68c13.27-0.42,26.53-1.39,39.8-1.52c23.87-0.24,47.75-0.1,71.62,0.01
			c8.61,0.04,17.21,0.46,25.82,0.76c22.34,0.78,44.69,1.56,67.03,2.4c12.49,0.47,24.98,0.89,37.45,1.66
			c14.15,0.87,28.28,2.11,42.41,3.17c4,0.3,8,0.61,12,0.81c11.52,0.57,23.05,0.9,34.55,1.68c13.38,0.91,26.83,0.23,40.15,3.05
			c25.74,5.43,51.79,9.45,77.42,15.34c28.6,6.58,56.98,14.2,85.25,22.1c24.03,6.72,47.29,15.87,69.7,26.79
			c28.41,13.85,56.77,27.97,82.53,46.52c11.49,8.28,23.29,16.42,33.46,26.16c13.68,13.09,26.95,26.78,37.58,42.67
			c5.01,7.5,10.81,14.56,15.06,22.45c8.82,16.38,17.04,33.09,25.1,49.86c4.49,9.33,8.32,19,12.09,28.65
			c1.08,2.77,0.75,6.06,1.39,9.04c2.31,10.78,5.4,21.44,7.03,32.31c4.16,27.76,3.41,55.28-4.19,82.6
			c-7.32,26.31-17.22,51.47-29.11,76.03c-11.66,24.1-25.45,46.79-40.65,68.77c-16.81,24.32-36.83,45.7-57.87,66.3
			c-19.52,19.11-40.77,36.15-62.36,52.81c-8.42,6.5-16.71,13.18-25.34,19.39c-16.51,11.9-33.02,23.81-49.9,35.19
			c-16.99,11.45-34.35,22.35-51.67,33.31c-19.64,12.44-39.06,25.26-59.2,36.83c-20.14,11.57-41,21.93-61.64,32.62
			c-42.13,21.81-86.54,38.03-131.88,51.49c-24.5,7.27-49.68,12.25-74.61,18.04c-11.5,2.67-23.1,4.98-34.72,7.08
			c-7.11,1.29-14.33,2.05-21.54,2.63c-1.68,0.14-4.45-0.98-5.04-2.28c-1.25-2.74,1.21-3.64,3.55-4.36
			c34.12-10.57,66.84-24.49,98.24-41.47c16.54-8.95,33.13-17.84,49.26-27.5c30.32-18.16,60.36-36.78,90.41-55.38
			c7.2-4.46,14.13-9.4,20.89-14.5c18.34-13.83,36.7-27.63,54.69-41.92c9.97-7.92,19.53-16.43,28.66-25.31
			c12.8-12.45,25.22-25.3,37.43-38.34c9.71-10.37,19.26-20.95,28.16-32.02c17.26-21.45,35.05-42.59,48.82-66.58
			c14.16-24.66,27.41-49.82,36.7-76.8c5.21-15.12,10.26-30.34,14.37-45.78c2.21-8.29,2.6-17.11,3.24-25.74
			c0.5-6.7,0.63-13.52,0-20.2c-1.24-12.96-2.78-25.91-4.83-38.77c-3-18.79-8.86-36.75-16.87-54.04
			c-6.86-14.8-14.27-29.24-24.52-42.03c-4.4-5.49-8.87-10.94-13.63-16.1c-9.17-9.94-18.1-20.19-27.99-29.39
			c-24.94-23.21-51.07-44.84-82.26-59.6c-33.39-15.8-67.74-29.1-102.98-40.05c-26.21-8.15-52.46-16.28-78.97-23.33
			c-19.69-5.24-39.82-8.84-59.8-12.96c-18.63-3.84-37.28-7.66-56.01-10.96c-11.4-2.01-22.98-3.09-34.49-4.45
			c-14.05-1.67-28.11-3.27-42.18-4.75c-9.27-0.98-18.59-1.56-27.85-2.59c-7.12-0.79-14.17-2.26-21.3-2.96
			c-11.27-1.1-22.58-1.94-33.89-2.66c-14.83-0.94-29.68-1.65-44.52-2.44c-15.24-0.81-30.5-1.26-45.7-2.47
			c-41.26-3.29-82.59-2.3-123.9-2.21c-16.96,0.04-33.91,0.49-50.87,0.75C803.56,85.36,801.03,84.44,798.79,87.05z M1871.85,348.5
			c0-2.15,0.26-4.35-0.04-6.46c-2.44-16.96-8.64-32.7-17.01-47.46c-7.73-13.64-15.68-27.27-24.85-39.95
			c-9.09-12.58-19.56-24.19-29.9-35.81c-7.59-8.52-17.26-12.66-29.1-12.09c-14.73,0.71-24.63,17.2-17.13,29.86
			c4.78,8.06,10.09,15.84,15.59,23.43c4.95,6.83,10.98,12.9,15.67,19.89c7.78,11.6,14.93,23.61,22.18,35.55
			c2.42,3.99,4.7,8.13,6.42,12.46c4.56,11.46,8.13,23.34,13.29,34.51c6,12.98,22.18,18.14,34.77,8.93
			C1869.59,365.62,1872.2,357.75,1871.85,348.5z M1858.51,439.75c0.15,0.36,0.3,0.71,0.44,1.07c3.88-1.59,7.92-2.86,11.59-4.83
			c5.56-2.99,6.76-9.04,9.25-14.22c3.61-7.51-2.65-18.24-7.27-21.83c-9.89-7.71-26.49-3.87-32.85,10.16
			C1834.1,422.37,1844,440.98,1858.51,439.75z"/>
		<path class="st1" d="M193.69,398.13c-0.49,2.01-0.34,4.66-1.59,5.94c-10.1,10.35-17.21,22.71-23.79,35.35
			c-10.55,20.28-22.53,39.89-30.28,61.53c-6.37,17.79-13.36,35.42-16.48,54.18c-1.65,9.92-2.39,20.01-4.29,29.88
			c-3.74,19.44-2.24,39.03-2.2,58.56c0.02,7.93,1.5,15.85,2.3,23.78c0.59,5.84,0.84,11.73,1.79,17.5
			c1.01,6.14,2.52,12.21,4.06,18.25c6.06,23.78,13.48,47.14,26.58,68.05c7.28,11.61,16.27,22.16,24.64,33.08
			c14.42,18.8,32.77,33.58,50.87,48.52c10.12,8.36,20.77,16.23,31.88,23.2c19.05,11.94,38.37,23.51,58.11,34.25
			c12.2,6.64,25.24,11.86,38.17,17.05c16.19,6.49,32.59,12.47,49.01,18.35c21.52,7.71,43.68,13.05,66.23,16.73
			c11.44,1.87,22.89,3.63,34.36,5.28c12.14,1.76,24.3,3.4,36.47,4.97c8.85,1.14,17.71,2.2,26.58,3.07
			c7.81,0.77,15.64,1.24,23.47,1.8c11.59,0.84,23.17,1.85,34.77,2.41c7.8,0.38,15.63,0.05,23.44,0.16
			c14.51,0.21,29.02,0.48,43.53,0.78c10.77,0.22,21.54,0.75,32.31,0.72c17.61-0.06,35.22-0.44,52.83-0.73
			c16.14-0.27,32.29-0.48,48.43-0.93c11.63-0.33,23.25-1.04,34.87-1.54c7.37-0.32,14.75-0.41,22.11-0.85
			c10.79-0.66,21.55-1.79,32.35-2.24c6.39-0.26,12.82,0.48,19.24,0.61c2.65,0.05,5.32-0.24,7.96-0.51
			c5.42-0.55,10.83-1.25,16.26-1.76c10.47-0.99,20.94-1.92,31.42-2.75c1.01-0.08,2.08,0.66,3.12,1.03c-0.7,0.94-1.22,2.48-2.11,2.72
			c-7.03,1.96-14.15,3.62-21.21,5.49c-2.18,0.58-4.21,1.82-6.41,2.22c-9.8,1.77-19.6,3.55-29.46,4.93
			c-10.3,1.45-20.68,2.3-30.99,3.7c-11.51,1.57-22.94,3.72-34.47,5.16c-11.23,1.4-22.56,2.08-33.81,3.36
			c-12.61,1.43-25.16,3.31-37.77,4.74c-11.38,1.29-22.79,2.3-34.2,3.33c-12.36,1.12-24.73,2.2-37.1,3.14
			c-6.28,0.48-12.58,0.67-18.88,0.87c-10.73,0.34-21.47,0.52-32.21,0.86c-15.68,0.49-31.36,1.34-47.04,1.55
			c-32.71,0.44-65.44,1.08-98.15,0.63c-19.91-0.27-39.79-2.45-59.69-3.72c-6.28-0.4-12.58-0.51-18.86-0.95
			c-13.39-0.95-26.77-2.09-40.16-3.05c-6.14-0.44-12.32-0.42-18.45-1c-15.46-1.45-30.95-2.71-46.33-4.82
			c-16.18-2.23-32.28-5.14-48.33-8.19c-8.35-1.59-16.49-4.21-24.77-6.2c-8.53-2.05-17.28-3.37-25.63-5.97
			c-15.57-4.83-31.11-9.79-46.01-16.61c-5.97-2.73-12.62-3.98-18.97-5.9c-0.49-0.15-1.05-0.17-1.48-0.43
			c-13.94-8.17-27.96-16.2-41.78-24.57c-18.42-11.16-35.66-23.95-50.27-39.87c-14.75-16.08-28.54-32.99-39.7-51.82
			c-10.21-17.23-17.45-35.69-21.29-55.37c-2.58-13.18-4.96-26.39-7.13-39.64c-0.95-5.8-1.4-11.71-1.61-17.59
			c-0.49-13.55-1.3-27.14-0.86-40.67c0.74-22.79,5.23-45.07,10.75-67.17c4.63-18.55,10.88-36.51,17.9-54.25
			c9.99-25.23,22.53-49.09,39.08-70.63c7.53-9.8,16.28-18.66,24.35-28.05c15.06-17.52,32.45-32.57,50.22-47.19
			c8.82-7.26,18.24-13.8,27.45-20.58c1.59-1.17,3.47-1.94,5.22-2.9C192.64,397.63,193.16,397.88,193.69,398.13z M129.5,852.28
			c-0.29-3.59-1.62-7.83-5.95-10.84c-6.9-4.8-14.57-8.75-18.78-16.65c-4.09-7.68-8.34-15.28-12.54-22.9
			c-2.74-4.98-6.52-8.58-12.58-8.74c-11.15-0.29-18.41,11.24-13.23,21.69c4.64,9.35,9.99,18.36,15.23,27.4
			c6.61,11.39,16.95,18.61,28.53,24.03C119.12,870.44,129.41,863.4,129.5,852.28z M148.33,901.5c7.96,0.01,14.32-6.08,14.34-13.72
			c0.02-8.26-6.59-15.33-14.4-15.39c-7.62-0.06-13.9,6.83-13.92,15.27C134.33,895.82,140.06,901.49,148.33,901.5z"/>
		<path class="st2" d="M633.01,323.14c0.29,0.28,0.57,0.55,0.86,0.83c1.5,1.71,3.01,3.42,4.51,5.13
			c13.16,13.75,22.37,29.82,26.71,48.3c2.21,9.41,1.91,19.14,1.24,28.94c-1.12,16.45-7.76,30.74-15.59,44.53
			c-7.77,13.69-17.67,25.91-29.82,36.14c-0.4,0.33-0.64,0.84-0.96,1.27c-0.28,0.26-0.56,0.52-0.84,0.78c-1.84,1.67-3.68,3.33-5.52,5
			c-0.62,0.44-1.24,0.88-1.86,1.32c-0.57,0.55-1.14,1.1-1.71,1.65c-0.98,0.88-1.95,1.77-2.93,2.65l-0.01,0.01
			c-0.61,0.45-1.22,0.89-1.82,1.34c-0.29,0.28-0.59,0.57-0.88,0.85c-5.91,4.56-11.82,9.13-17.74,13.69
			c-10.29,7.25-20.43,14.74-30.93,21.66c-6.81,4.49-14.04,8.37-21.28,12.15c-10.95,5.71-22.01,11.22-33.14,16.56
			c-12.08,5.79-24.33,11.23-36.46,16.92c-14.86,6.96-29.6,14.19-44.54,20.98c-11.25,5.11-22.74,9.71-34.11,14.56
			c-1.91,0.82-3.77,1.75-5.66,2.64c-1.98,0.94-3.95,1.89-5.93,2.83c-0.75,0.21-1.5,0.43-2.25,0.64c-3.62,0.64-7.29,1.11-10.85,1.99
			c-1.63,0.41-3.07,1.63-4.59,2.48c-0.79,0.1-1.58,0.2-2.38,0.3c-0.84,0.15-1.67,0.31-2.51,0.46c-4.01,0.44-8.02,0.88-12.02,1.32
			c-2.26-0.25-4.53-0.46-6.79-0.75c-3.36-0.44-6.72-0.93-10.08-1.4c-1.29-7.4,2.71-12.7,7.35-17.52
			c10.04-10.45,21.39-19.37,33.23-27.69c17.32-12.17,34.62-24.35,51.96-36.49c1.49-1.04,3.29-1.64,4.79-2.67
			c2.4-1.65,4.23-2.98,3.02-6.98c-4.51-14.9-8.21-30.03-12.42-45.02c-4.2-14.97-8.5-29.92-13.02-44.8
			c-3.82-12.58-7.51-25.25-12.17-37.53c-7.03-18.53-14.9-36.74-22.35-55.12c-2.92-7.21-5.79-14.45-8.44-21.76
			c-2.44-6.71-2.3-6.76-9.48-6.88c-0.83-0.81-1.56-2.18-2.49-2.34c-5.65-0.93-11.34-1.59-17.02-2.33
			c-3.69-0.48-7.38-0.92-11.06-1.44c-4.12-0.58-8.24-1.21-12.36-1.82c-6.63-1.46-13.25-2.94-19.88-4.39
			c-3.47-0.75-7-1.26-10.41-2.23c-2.23-0.64-4.28-1.92-6.64-2.46c6.79,15.24,20.53,19.94,36.22,23.47c-1.78,0.97-2.44,1.6-3.17,1.69
			c-17.2,2.03-29.25,10.92-34.6,27.44c-2.42,7.47-3.16,15.52-4.33,23.35c-0.74,4.98-0.85,10.05-1.28,15.65
			c-3.53-1.81-3.28-4.96-3.63-7.7c-1.66-13.01-3.48-25.92-11-37.23c-6.49-9.77-16.05-14.25-27.05-16.69
			c-2.97-0.66-7.13,0.66-8.73-4.24c1.96-0.77,3.71-1.85,5.58-2.15c11.51-1.83,18.93-9.49,25.63-17.99c2.17-2.75,3.29-6.31,5.07-9.39
			c1.39-2.4,0.31-3.24-1.82-4.07c-2.45-0.95-4.88-2.05-7.1-3.45c-4.09-2.58-3.96-6.03,0.43-8.04c4.07-1.86,8.38-3.19,13.14-4.95
			c0.28-2.79,0.53-6.2,1.01-9.59c0.12-0.84,0.95-1.57,1.46-2.35c0.83,0.71,2.21,1.29,2.39,2.14c0.6,2.83,0.77,5.76,1.2,9.43
			c12.08-2.02,24.1-4.03,36.13-6.03c5.95-1.06,11.89-2.12,17.84-3.18c0.77-0.1,1.55-0.21,2.32-0.31c0.87-0.13,1.74-0.26,2.61-0.39
			c7.26-0.85,14.51-1.7,21.77-2.55c0.57-0.15,1.15-0.29,1.72-0.44c0.79-0.07,1.57-0.14,2.36-0.2c1.37-0.21,2.74-0.41,4.12-0.62
			c0.78-0.08,1.57-0.15,2.35-0.23c1.37-0.21,2.74-0.43,4.11-0.64c5.28-0.61,10.56-1.34,15.85-1.77c2.63-0.21,2.54-1.26,2.05-3.38
			c-4.62-20.14-14.33-37.21-30.1-50.73c-10.59-9.07-23.12-14.54-35.92-19.62c-6.92-2.75-13.66-5.97-20.43-9.09
			c-0.97-0.44-1.63-1.54-2.44-2.33c0.98-0.73,1.86-1.77,2.96-2.14c10.62-3.58,21.63-6.23,31.86-10.7
			c23.99-10.48,39.4-28.91,46.55-54.05c2.5-8.77,4.9-17.63,6.42-26.6c1.68-9.92,2.28-20.02,3.35-30.05
			c0.11-1.06-0.15-2.32,0.35-3.14c0.53-0.89,1.75-1.36,2.66-2.02c0.61,0.9,1.66,1.76,1.76,2.72c1.77,17.67,4.97,35.05,11.47,51.64
			c10.43,26.64,27.64,47.81,52.12,62.84c9.85,6.04,20.66,9.24,32.2,10.04c1.97,0.14,3.91,0.67,7.18,1.26
			c-1.38,1.28-2.07,2.41-3.05,2.77c-12.07,4.37-24.27,8.4-36.26,12.96c-21.95,8.34-35.87,24.48-43.72,46.2
			c-2.45,6.78-4.55,13.68-7.15,21.57c4.97-0.23,9.5-0.44,14.02-0.65c0.81-0.04,1.61-0.07,2.42-0.11c3.49-0.04,6.97-0.07,10.46-0.11
			c0.59-0.01,1.18-0.03,1.78-0.04c1.29,0,2.59,0,3.88,0c0.59,0.01,1.19,0.01,1.78,0.02c4.01,0.12,8.03,0.25,12.04,0.37
			c1.1,0.01,2.19,0.01,3.29,0.02c0.53-0.03,1.05-0.07,1.58-0.1c0.82,0.23,1.64,0.45,2.46,0.68c5.9,0.1,11.8,0.2,17.7,0.29
			c0.87,1.83,1.73,1.81,2.58-0.01c0.77-0.02,1.53-0.04,2.3-0.06c1.36,1.98,2.75,2.02,4.18,0.08c1.03,0,2.05-0.01,3.08-0.01
			c1.92,0.17,3.84,0.34,5.76,0.51c9.85,0.56,19.74,0.74,29.53,1.79c10.85,1.16,21.65,2.93,32.41,4.79
			c7.45,1.29,14.94,2.73,22.15,4.95c6.78,2.09,13.48,4.8,19.75,8.12c9.72,5.15,19.23,10.75,28.44,16.76
			c5.86,3.82,11.02,8.72,16.5,13.13c1.43,1.25,2.85,2.51,4.28,3.76c0,0,0.04,0.03,0.04,0.03
			C631.41,321.55,632.21,322.34,633.01,323.14z M491.29,504.47L491.29,504.47c1.32-0.59,2.79-0.98,3.92-1.81
			c4.96-3.65,9.87-7.4,14.71-11.22c1-0.79,1.63-2.06,2.43-3.11c3.29-2.68,6.71-5.22,9.84-8.07c4.86-4.41,10.21-8.51,14.11-13.68
			c4.99-6.63,9.16-13.99,12.91-21.43c2.89-5.75,4.75-12.05,6.74-18.21c1.2-3.71,1.76-7.61,2.6-11.43c0.49-0.83,1.4-1.65,1.41-2.48
			c0.11-7,0.11-14.01-0.01-21.01c-0.01-0.83-0.92-1.64-1.42-2.46c-0.32-2.34-0.41-4.75-1.01-7.02c-1.5-5.7-2.44-11.73-5.03-16.92
			c-4.88-9.81-11.9-18.16-21.8-23.36c-6.17-3.24-12.78-5.67-19.19-8.47c-1.37-1.08-2.61-2.78-4.15-3.13
			c-3.82-0.87-7.81-0.98-11.68-1.68c-5.93-1.07-11.8-2.55-17.74-3.49c-2.23-0.35-4.62,0.29-6.93,0.48
			c-3.76-0.32-7.52-0.64-11.28-0.95c-2.94-0.05-5.9-0.34-8.8-0.04c-1.24,0.13-2.36,1.48-3.54,2.27c-0.68,0.52-1.76,0.91-1.97,1.57
			c-1.03,3.3-2.67,6.71-2.54,10.02c0.32,8.43,1.21,16.86,2.34,25.22c1.39,10.31,1.04,20.69,2.89,31.05
			c2.33,13.05,0.47,26.59,3.35,39.8c1.95,8.96,2.32,18.26,3.43,27.41c0.37,3.02,0.77,6.05,1.29,9.05c0.87,5.01,1.94,9.98,2.77,14.99
			c1.48,8.91,2.73,17.87,4.35,26.75c0.49,2.7,2.13,4.55,5.45,2.94c6.6-3.2,13.26-6.28,19.9-9.4
			C489.52,505.93,490.4,505.2,491.29,504.47z M637.78,352.76c1-5.44-1.96-9.94-6-14.01c-0.57-0.57-1.24-1.1-1.64-1.77
			c-6.76-11.34-16.27-19.91-27.64-26.27c-6.15-3.44-6.79-4.29-10.57-0.3c-2.32,2.44-3,8.59-0.76,11.12
			c3.6,4.06,7.34,8.05,11.4,11.64c6.15,5.43,12.49,10.6,16.67,17.85c1.87,3.24,3.87,6.42,5.93,9.55c2.47,3.74,6.31,2.7,9.55,1.96
			c2.86-0.65,3.34-3.51,3.07-6.28C637.7,355.32,637.78,354.37,637.78,352.76z M417.61,352.5c-0.03,0-0.06,0-0.09,0
			c0.31,6.02,0.31,12.07,1.03,18.04c0.58,4.86,1.79,9.69,3.14,14.41c1.09,3.82,4.63,5.5,8.22,4.49c3.74-1.06,5.05-3.85,4.26-8.15
			c-1.07-5.88-1.94-11.8-2.78-17.72c-0.82-5.8-1.33-11.65-2.31-17.42c-0.77-4.54-2.7-5.73-7.2-5.05c-3.79,0.58-4.47,3.29-4.29,6.55
			C417.68,349.27,417.61,350.89,417.61,352.5z M378,121.85c-1.64,1.29-3.39,1.95-3.68,3.02c-0.72,2.67-1.76,5.84-0.95,8.23
			c3.08,9.12,7.5,17.57,15.81,23.22c4.05,2.75,5.62,2.49,9.11-0.85c2.96-2.83,0.7-5.16-0.54-7.56c-0.61-1.18-1.57-2.17-2.34-3.27
			c-4.42-6.35-8.77-12.74-13.29-19.02C381.15,124.26,379.62,123.3,378,121.85z M643.95,374.21c-6.45,0-8.63,1.68-8.67,6.71
			c-0.05,6.52,3.44,10.26,9.6,10.28c5.39,0.01,8.17-3.2,8.23-9.51C653.16,376.8,649.99,374.21,643.95,374.21z M270.8,327.02
			c-0.67-1.49-0.97-2.68-1.65-3.58c-3.31-4.35-6.52-8.8-10.21-12.81c-1.08-1.17-3.78-1.61-5.44-1.2c-0.84,0.21-1.97,3.67-1.36,4.61
			c3.55,5.46,7.45,10.7,11.56,15.75c0.68,0.83,3.12,0.82,4.46,0.36C269.25,329.77,269.91,328.14,270.8,327.02z M410.35,166.53
			c0.04-3.23-2.09-4.03-4.75-4.14c-2.56-0.1-4.31,1.06-4.1,3.75c0.21,2.75,1.95,4.28,4.82,4.32
			C408.98,170.49,410.29,169.17,410.35,166.53z"/>
		<path class="st2" d="M761.49,729.1c-1.68,0.34-3.35,0.96-5.03,0.97c-10.38,0.08-20.79,0.57-31.11-0.16
			c-7.39-0.52-14.66-2.73-21.97-4.23c-1.67-0.34-3.33-1.33-4.94-1.23c-4.2,0.27-4.11-2.86-4.72-5.42c-0.43-1.79-0.52-3.66-0.86-5.48
			c-0.52-2.79-1.08-5.57-1.68-8.35c-1.26-5.85,2.58-10.28,8.39-10.85c8.51-0.82,16.95-2.39,25.42-3.56
			c3.54-0.49,7.11-0.84,10.67-1.19c5.92-0.58,11.86-0.92,17.75-1.7c5.59-0.74,11.1-1.98,16.68-2.84c2.76-0.43,5.59-0.42,8.37-0.76
			c11.56-1.43,23.27-2.22,34.62-4.67c6.73-1.45,13.79-0.63,19.96-2.62c7.92-2.55,15.9-2.32,23.8-3.64c1.12-0.19,2.17-0.84,3.25-1.28
			c5.2-0.02,10.4-0.04,15.6-0.07c8.35,1.85,11.03,13.98,4.7,21.37c-0.47,0.54-1.32,0.87-2.06,1.05c-7.89,1.94-15.81,3.79-23.68,5.81
			c-0.74,0.19-1.55,1.23-1.77,2.03c-0.67,2.41-1.43,4.88-1.52,7.36c-0.36,10.32-0.74,20.66-0.6,30.98
			c0.11,8.81,1.11,17.61,1.34,26.42c0.12,4.65-0.55,9.32-0.87,13.99c0,0.52-0.01,1.03-0.01,1.55c0.34,14.37,0.67,28.74,1.02,43.1
			c0.27,10.87,0.54,21.74,0.87,32.61c0.19,6.55,1.08,13.14,0.6,19.63c-0.79,10.73-2.73,12.59-12.97,13.05
			c-9.97,0.44-14.59-4.78-15.36-15.21c-0.64-8.62-2.35-17.17-3.74-25.72c-0.99-6.09-2.13-12.16-3.42-18.19
			c-0.7-3.26-1.84-6.43-2.98-10.29c-3.99,3.22-7.51,6.21-11.18,9.01c-14.3,10.86-29.12,20.99-45.61,28.23
			c-7.43,3.26-15.4,5.29-23.08,7.99c-14.56,5.1-29.73,6.92-44.93,6.16c-12.78-0.64-25.57-2.76-38.15-5.26
			c-18.84-3.75-36.36-11.27-52.87-21.07c-9.83-5.83-17.68-13.97-25.62-22.03c-12.82-13.03-19.46-29.64-26.53-45.92
			c-2.83-6.52-4.11-13.75-5.86-20.71c-0.83-3.3-1.11-6.74-1.63-10.11c-0.35-2.49-0.71-4.98-1.06-7.46
			c0.05-9.81-0.49-19.66,0.35-29.4c0.7-8.14,2.86-16.18,4.65-24.2c1.29-5.79,2.63-11.64,4.7-17.19c2.93-7.84,6.42-15.49,9.92-23.1
			c2.72-5.92,5.59-11.79,8.81-17.45c4.17-7.34,8.82-14.42,13.13-21.68c5.62-9.46,12.25-18.15,20-25.94
			c15.62-15.69,33.88-27.25,54.86-34.35c8.3-2.81,16.67-5.6,25.2-7.56c6.91-1.59,14.11-1.88,21.17-2.8
			c8.15-1.06,16.29-2.17,24.43-3.26c0.83-0.17,1.66-0.33,2.49-0.5c3.7-0.24,7.41-0.48,11.11-0.71c4.92-0.19,9.84-0.38,14.76-0.57
			c2.45-0.17,4.9-0.34,7.36-0.51c0.45-1.14,0.91-2.28,1.36-3.42c1.18-6.38,3.02-7.85,9.16-8.1c8.79-0.36,17.57-1.47,26.34-1.31
			c13.48,0.24,26.99,0.65,40.11,4.58c6.44,1.93,10.49,5.93,10.41,11.24c-0.02,0.9-0.16,1.88-0.56,2.67
			c-5.8,11.26-11.43,22.6-17.55,33.69c-5.3,9.6-11.18,18.88-16.77,28.31c-5.66,9.55-11.04,19.28-17.06,28.59
			c-2.63,4.08-6.55,7.34-9.88,10.96c-1.43,1.55-2.87,3.09-4.3,4.64c-0.35,0.38-0.65,0.95-1.08,1.1c-4.66,1.55-15.57-4.11-17.09-9.33
			c-1.25-4.28-2.19-8.82-2.21-13.25c-0.09-13.97,0.32-27.94,0.53-41.92c0.16-1.15,0.32-2.29,0.48-3.44
			c-0.06-1.55-0.11-3.09-0.17-4.64c-0.37-0.46-0.73-0.92-1.1-1.38c-6.32,0.57-12.65,1.05-18.96,1.75
			c-4.99,0.56-10.02,1.07-14.9,2.19c-5.59,1.29-11.37,2.53-16.47,5.02c-11.58,5.65-23.41,11.16-33.99,18.4
			c-11.45,7.84-20.7,18.29-28.28,30.21c-6.25,9.83-11.47,20.1-15.25,31.01c-2.35,6.81-4.8,13.71-4.89,21.2
			c-0.05,4.22-1.6,8.41-1.98,12.65c-0.27,3,0.25,6.07,0.51,9.1c0.09,1.03,0.57,2.03,0.74,3.06c1.59,9.72,3.1,19.45,4.74,29.17
			c2.54,15.11,8.23,29.07,18.05,40.73c6.21,7.38,13.89,13.67,21.47,19.73c7.36,5.88,15.14,11.38,23.29,16.09
			c9.55,5.52,19.77,9.49,30.97,11.08c10.14,1.44,20.03,0.03,29.6-2.14c8.3-1.88,16.32-5.86,23.86-10
			c5.59-3.07,10.59-7.52,15.16-12.06c3.58-3.56,6.59-7.94,8.88-12.46c1.05-2.07,0.14-5.44-0.55-8.04c-1.99-7.4-4.32-14.7-6.54-22.04
			c-2.4-7.93-4.82-15.85-7.23-23.77c-0.64-2.12-1.64-3.28-4.27-3.13c-6.05,0.34-12.12,0.26-18.19,0.35
			C765.85,728.57,763.67,728.83,761.49,729.1z M601.13,679.72c0.34,5.88,0.48,11.78,1.1,17.63c0.44,4.21,1.39,8.38,2.36,12.52
			c0.77,3.29,4,5.28,7.38,4.76c3.48-0.53,5.18-2.55,4.78-6.17c-0.27-2.51-0.8-5.06-0.61-7.55c0.55-6.99,1.31-13.98,2.21-20.94
			c0.6-4.61,0.9-9.45,2.57-13.7c2.26-5.74,2.73-11.54,2.08-17.37c-0.23-2.1-2.4-4.59-4.36-5.68c-1.41-0.78-4.19,0.03-5.92,0.95
			c-1.67,0.89-3.09,2.64-4.1,4.33C602.88,658.11,601.08,668.69,601.13,679.72z M835.45,764.89c5.19,0.59,7.43-5.66,6.89-11.27
			c-1.2-12.49-2.66-24.96-3.86-37.45c-0.37-3.8-4.16-8.05-7.59-7.95c-4,0.12-7,3.61-7.05,8.13c-0.15,14.76-0.34,29.52,4.9,43.68
			C829.9,763.15,831.77,765.01,835.45,764.89z M808.45,558.62c-0.54,4.31,0.69,7.36,4.97,9.07c4.6,1.84,7.5-0.77,9.55-3.89
			c3.37-5.12,6.38-10.54,8.87-16.13c1.13-2.53,1.42-5.95,0.78-8.66c-1.47-6.2-7.61-10.51-11.65-6.57
			C813.71,539.53,809.52,548.47,808.45,558.62z M834.39,778.37c0.01,5.14,1.38,6.74,5.77,6.71c4.11-0.03,6.48-2.79,6.42-7.48
			c-0.04-3.45-3.19-6.99-6.31-7.09C836.53,770.4,834.38,773.27,834.39,778.37z"/>
		<path class="st0" d="M1158.06,504.81c8.75-6.94,18.5-12.2,28.92-16.35c-2.32-20.2-1.19-40.3-1.23-60.37
			c-0.02-9.6,0.84-19.2,1.56-28.79c0.93-12.46,2.17-24.91,3.17-37.36c0.42-5.19,0.64-10.4,0.83-15.61
			c0.33-9.11,0.52-18.22,0.84-27.32c0.19-5.48,0.66-10.95,0.69-16.42c0.01-1.25-1-2.88-2.04-3.71c-4.18-3.33-8.65-6.29-12.81-9.64
			c-1.49-1.2-2.77-2.96-3.5-4.73c-0.71-1.71-0.22-3.32,2.31-3.6c6.53-0.7,13.03-1.66,19.55-2.41c8.86-1.02,17.72-2.19,26.62-2.79
			c3.33-0.22,6.8,0.81,10.12,1.64c0.77,0.19,1.8,2,1.63,2.84c-1.36,6.67-3.93,13.22-4.32,19.92c-0.58,10.19,0.3,20.45,0.55,30.69
			c0.04,1.73,0.01,3.46,0.01,5.97c4.61-3.27,8.76-6.07,12.74-9.08c7.53-5.7,14.92-11.59,22.46-17.28
			c7.19-5.43,15.05-9.68,23.91-11.6c13.44-2.91,26.97-5.25,40.47-0.22c18.35,6.84,29.48,20.4,35.6,38.53
			c3.98,11.79,5.98,23.91,5.69,36.37c-0.23,9.65,0.04,19.36-0.95,28.93c-1.26,12.21-3.5,24.32-5.46,36.45
			c-1.81,11.21-3.96,22.36-5.68,33.58c-1.32,8.64-2.3,17.34-3.19,26.04c-0.13,1.3,0.72,3.11,1.73,4.03
			c4.94,4.53,10.1,8.82,15.15,13.23c0.97,0.85,2.14,1.75,2.55,2.86c0.25,0.69-0.53,2.32-1.27,2.67c-0.99,0.47-2.4,0.29-3.58,0.09
			c-12.5-2.1-24.99-4.27-37.48-6.38c-0.79-0.13-1.62-0.07-2.42-0.03c-8.73,0.46-9.38-0.75-10.23-10.29
			c-0.72-8.05-0.55-16.23-0.04-24.31c0.58-9.12,2.03-18.19,3-27.29c0.44-4.11,0.69-8.24,0.92-12.36c0.58-10.13,0.9-20.29,1.69-30.41
			c0.84-10.73,1.98-21.43,3.19-32.13c1.2-10.65,3.33-21.26,3.7-31.93c0.18-5.24-2.18-10.79-4.25-15.84
			c-5.42-13.24-23.41-15.74-35.95-9.92c-12.54,5.81-22.35,14.97-30.65,25.61c-11.34,14.53-20.75,30.38-28.31,47.2
			c-5.54,12.33-9.41,25.23-10.55,38.79c-0.91,10.88-1.78,21.77-2.4,32.66c-0.49,8.69-0.73,17.41-0.8,26.11
			c-0.04,4.8,0.49,9.6,0.76,14.39c0.01,0.13-0.01,0.27,0.01,0.4c1.09,5.31,1.11,5.17-4.18,4.45c-6.97-0.94-13.95-2-20.96-2.36
			c-11.26-0.58-22.54-0.6-33.81-0.92c-1.35-0.04-2.68-0.41-4.02-0.62C1158.22,505.75,1158.14,505.28,1158.06,504.81z
			 M1361.27,366.76c0.23-0.05,0.47-0.1,0.7-0.14c-1.84-8.6-3.39-17.27-5.72-25.73c-0.53-1.92-3.58-3.96-5.76-4.35
			c-1.47-0.26-4.2,1.92-4.98,3.64c-0.84,1.84-0.28,4.45,0.05,6.67c1.1,7.38,1.98,14.83,3.81,22.04c0.61,2.39,3.48,4.96,5.92,5.93
			c2.66,1.06,5.64-2.27,5.97-5.64C1361.34,368.38,1361.27,367.56,1361.27,366.76z M1355.14,386.37c-3.25,0.03-5.97,2.59-6,5.65
			c-0.04,3.75,2.88,6.6,6.61,6.48c3.07-0.1,5.63-3.18,5.52-6.63C1361.17,388.79,1358.44,386.34,1355.14,386.37z"/>
		<path class="st1" d="M901.44,658.18c2.65-0.81,5.27-1.79,7.97-2.39c12.52-2.79,25.01-5.74,37.62-8.09
			c8.57-1.6,17.32-2.22,25.96-3.51c2.28-0.34,4.39-2.02,6.65-2.18c4.57-0.33,5,0.85,3.78,5.18c-0.99,3.54-1.63,7.31-1.62,10.97
			c0.04,11.54,0.33,23.08,0.76,34.62c0.36,9.61,0.74,19.23,1.68,28.79c1.31,13.47,2.93,26.92,4.82,40.32
			c1.88,13.36,3.82,26.73,6.51,39.94c4.69,23.05,20.69,34.22,42.58,38.32c12.99,2.44,25.44-0.61,37.68-4.79
			c8-2.73,11.48-7.18,11.02-15.77c-0.75-13.96-1.89-27.91-3.19-41.83c-1.09-11.63-2.58-23.22-4.03-34.8
			c-1.53-12.23-3.39-24.42-4.76-36.66c-1.32-11.76-2.22-23.57-3.31-35.36c-0.33-3.58-0.79-6.74-4.88-8.58
			c-8.49-3.82-16.73-8.19-25.04-12.41c-0.94-0.48-1.62-1.47-2.42-2.22c0.91-0.85,1.72-2.23,2.76-2.44
			c5.07-1.04,10.19-1.91,15.32-2.56c13.17-1.66,26.34-3.45,39.56-4.64c8.61-0.78,17.32-0.62,25.98-0.79
			c0.93-0.02,1.88,0.55,3.3,0.99c-3.61,4.38-6.93,8.19-9.97,12.23c-0.96,1.27-1.75,3.16-1.62,4.69c0.89,10.18,2.09,20.34,3.09,30.51
			c0.64,6.5,1.07,13.01,1.68,19.51c1.03,10.99,2.18,21.96,3.17,32.95c0.65,7.17,1.02,14.36,1.7,21.52
			c0.97,10.31,2.16,20.61,3.15,30.92c0.66,6.89,1.11,13.8,1.69,20.69c0.39,4.64,0.57,9.32,1.39,13.89c0.33,1.82,1.77,3.87,3.31,4.99
			c8.45,6.15,17.08,12.04,25.64,18.04c1.1,0.77,2.3,1.53,3.11,2.56c0.47,0.6,0.6,1.93,0.24,2.57c-0.34,0.61-1.54,1.11-2.32,1.06
			c-10.22-0.68-20.44-2.19-30.64-2.02c-9.35,0.16-18.67,2.09-28,3.28c-5.37,0.68-10.73,1.48-16.1,2.16
			c-9.48,1.2-18.95,2.39-28.44,3.52c-6.46,0.77-12.92,1.43-19.39,2.14c-11.63,1.28-23.03-0.16-34.14-3.51
			c-13.92-4.2-24.17-13.63-33.3-24.45c-10.07-11.95-15.27-26.22-18.49-41.15c-2.78-12.91-4.85-26.01-6.49-39.13
			c-1.4-11.23-1.82-22.59-2.53-33.9c-0.65-10.4-1.09-20.82-1.65-31.23c-0.23-4.27-0.43-8.54-0.88-12.78
			c-0.1-0.98-0.96-2.19-1.82-2.73c-10.06-6.32-20.9-10.75-32.51-13.32c-1.56-0.35-3.02-1.13-4.53-1.71
			C901.47,659.11,901.45,658.65,901.44,658.18z M1113.63,689.94c-0.02-0.26-0.04-1.21-0.2-2.13c-1.8-10.5-3.67-21-5.43-31.51
			c-0.68-4.07-3.38-6.69-6.79-6.26c-3.54,0.44-5.88,3.55-5.34,7.61c0.8,6.08,1.77,12.13,2.79,18.17c0.86,5.13,2,10.21,2.79,15.34
			c0.49,3.21,3.73,6.73,6.46,6.52C1111.18,697.43,1113.59,694.46,1113.63,689.94z M976.84,678.56c-0.15-0.66-0.49-2.08-0.79-3.51
			c-1.14-5.47-2.07-11-3.49-16.4c-0.86-3.28-4.74-5.02-7.82-3.58c-2.76,1.28-4.69,3.24-3.76,7c1.5,6.07,2.55,12.25,3.73,18.39
			c0.72,3.77,3.21,6.11,6.42,5.91C974.52,686.14,976.91,683.22,976.84,678.56z M1133.04,839.59c0.02-3.35-2.95-6.01-6.76-6.03
			c-3.09-0.02-6.05,2.45-6.17,5.14c-0.12,2.94,3.35,6.78,6.29,6.94C1128.93,845.78,1133.02,842.05,1133.04,839.59z M971.19,704.19
			c3.51-0.02,5.7-2.09,5.65-5.35c-0.06-3.29-2.93-5.96-6.4-5.97c-3.16,0-5.71,2.66-5.72,5.98
			C964.7,702.47,966.83,704.22,971.19,704.19z"/>
		<path class="st0" d="M838.3,177.31c1.34-0.67,2.64-1.8,4.03-1.93c10.49-0.95,20.99-1.79,31.49-2.48
			c13.73-0.91,27.47-1.78,41.22-2.42c15-0.7,30-1.16,45.01-1.62c3.99-0.12,5.42,2.13,3.79,5.9c-1.38,3.19-3.66,6.09-4.54,9.39
			c-1.79,6.69-3.68,13.51-4.15,20.37c-1.04,15.23-1.29,30.51-1.76,45.77c-0.35,11.27-0.63,22.54-0.81,33.81
			c-0.33,20.43-0.68,40.87-0.77,61.3c-0.04,10.19,0.29,20.39,0.81,30.57c0.6,11.85,1.1,23.74,2.49,35.51
			c2.19,18.53,5.21,36.96,12.97,54.18c0.73,1.62,2.63,2.94,4.28,3.89c11.88,6.88,23.87,13.56,35.73,20.49
			c1.31,0.77,1.99,2.63,2.96,3.99c-1.74,0.59-3.53,1.8-5.22,1.67c-8.79-0.67-17.54-1.92-26.33-2.53
			c-17.79-1.25-35.59-2.28-53.4-3.27c-11.79-0.66-23.6-0.95-35.39-1.71c-3.61-0.23-7.15-1.5-10.72-2.31
			c-4.17-0.94-2.98-3.03-0.95-5.04c3.25-3.23,6.6-6.36,9.95-9.47c3.52-3.26,7.19-6.36,10.57-9.75c0.83-0.83,1.26-2.56,1.13-3.79
			c-1.22-11.57-2.61-23.13-3.94-34.69c-0.02-0.13-0.02-0.27-0.02-0.4c-0.2-17.88-0.46-35.77-0.57-53.65
			c-0.03-4.68,0.46-9.37,0.55-14.05c0.31-17.49,0.56-34.98,0.83-52.47c0.26-16.82,0.82-33.63,0.71-50.45
			c-0.08-12.84-1.01-25.67-1.52-38.51c-0.2-5-2.04-8.48-7.05-10.6c-8.37-3.53-16.44-7.75-24.68-11.61
			c-8.35-3.91-16.75-7.74-25.11-11.62c-0.61-0.28-1.14-0.72-1.71-1.08C838.22,178.23,838.26,177.77,838.3,177.31z M941.18,234.26
			c0.29-0.03,0.58-0.06,0.87-0.09c0-5.26,0.05-10.51-0.02-15.77c-0.04-3.19-2.64-5.92-5.39-5.88c-3.09,0.04-5.73,2.72-5.92,5.92
			c-0.24,4.14-0.92,8.3-0.72,12.42c0.61,12.84,1.44,25.67,2.4,38.49c0.26,3.49,3.62,5.82,6.79,5.37c3.44-0.5,5.65-3.64,5.28-7.32
			C943.34,256.36,942.27,245.31,941.18,234.26z M943.66,292.07c-0.05-3.28-3.59-6.88-6.66-6.77c-3.04,0.1-5.6,3.24-5.46,6.71
			c0.14,3.6,2.94,6.28,6.51,6.22C940.95,298.17,943.71,295.16,943.66,292.07z"/>
		<path class="st2" d="M748.66,349.23c0.03,9.16-0.45,18.15,2.13,27.02c1.55,5.33,1.99,11.01,3.75,16.25
			c1.58,4.72,3.74,9.45,6.6,13.51c7.35,10.44,17.48,17.98,29.33,22.16c12.25,4.33,24.63,1.67,36.32-3.54
			c5.38-2.4,10.52-5.36,15.87-7.85c2.55-1.19,5.33-1.89,8.45-2.96c1.3,5.34-0.79,8.89-3.21,11.86
			c-9.41,11.52-21.71,18.95-35.32,24.61c-11.9,4.95-24.27,6.43-36.91,5.62c-18.15-1.17-34.28-7.6-48.34-19.35
			c-12.8-10.7-21.93-23.61-26.96-39.62c-4.73-15.06-4.72-30.47-4.15-45.88c0.47-12.71,3.6-25.23,8.96-36.63
			c10.05-21.39,25.37-38.18,48.07-46.65c6.76-2.52,14.24-3.83,21.46-4.22c9.75-0.53,19.6,0.04,29.36,0.74
			c12.12,0.87,23.77,4.59,34.19,10.39c8.33,4.63,15.56,11.83,18.31,21.59c2.03,7.19,0.2,14.5-1.97,21.54
			c-4.66,15.06-12.72,27.84-26.11,36.55c-4.27,2.78-9.29,5-14.26,5.91c-3.42,0.63-7.32-1.52-11.04-2.28
			c-5.43-1.12-10.89-2.11-16.34-3.17c-6.05-1.18-12.1-2.4-18.16-3.53c-2.47-0.46-4.98-0.78-7.48-1.03
			C757.12,349.88,753.05,349.59,748.66,349.23z M799.31,285.91c-1.45,0.22-2.92,0.34-4.34,0.68c-18.61,4.51-26.93,19.62-35.34,34.55
			c-0.3,0.53,0.79,2.66,1.51,2.82c5.69,1.28,11.46,2.2,17.18,3.35c4.52,0.91,9.16,1.55,13.46,3.1c5.26,1.9,14.53,0.4,18-3.72
			c4.32-5.12,7.71-10.43,8.75-17.5C820.33,296.97,811.79,285.73,799.31,285.91z M755.94,291.74c-1.01,0.78-3.65,1.82-4.51,3.68
			c-5,10.82-9.78,21.75-14.19,32.82c-1.85,4.66-0.14,8.16,3.52,9.28c4.35,1.34,6.21-1.87,7.6-4.91c2.16-4.75,3.71-9.77,5.78-14.56
			c2.71-6.29,5.87-12.39,8.47-18.72C764.12,295.65,761.21,291.89,755.94,291.74z M848.32,310.72c-0.31-0.13-0.61-0.27-0.92-0.4
			c-0.29-2.25-0.79-4.49-0.82-6.74c-0.07-6.9-2.84-12.54-8.06-16.82c-1.21-1-3.84-1.25-5.38-0.67c-3.86,1.45-4.66,5.61-2.14,9.86
			c4.01,6.77,5.97,13.56,2.16,21.25c-1.42,2.87-0.2,5.83,2.71,7.64c2.81,1.75,5.52,1.09,6.96-1.58
			C845.01,319.26,846.53,314.92,848.32,310.72z M745.37,356.95c0.01-2.59-3.56-6.07-6.32-6.16c-3.57-0.11-6.6,2.68-6.61,6.07
			c0,3.41,2.96,6.13,6.61,6.05C742.51,362.84,745.36,360.15,745.37,356.95z"/>
		<path class="st0" d="M1043.38,303.89c13.45,0,26.92-0.36,40.35,0.14c7.35,0.28,14.66,1.94,21.95,3.14
			c2.35,0.39,3.66,1.43,2.51,4.44c-3.06,8.04-6.03,16.14-8.41,24.4c-1.41,4.9-1.74,10.12-2.31,15.23
			c-1.17,10.43-2.26,20.86-3.21,31.31c-0.7,7.69-1.05,15.41-1.69,23.1c-0.99,11.82-2.35,23.6-3.09,35.43
			c-0.66,10.7-0.76,21.44-0.9,32.17c-0.01,1.05,1.26,2.44,2.3,3.12c4.07,2.67,8.32,5.05,12.41,7.7c0.8,0.52,1.15,1.73,1.71,2.62
			c-0.95,0.53-1.94,1.57-2.84,1.5c-5.43-0.45-10.84-1.18-16.27-1.77c-3.98-0.43-7.96-0.92-11.95-1.11
			c-9.72-0.46-19.46-0.77-29.18-1.13c-0.27-0.01-0.55,0.07-0.81,0.02c-1.59-0.33-3.18-0.68-4.77-1.03c1.35-0.98,2.59-2.19,4.07-2.91
			c4.42-2.13,5.84-5.99,6.43-10.42c0.04-0.26,0-0.54,0.01-0.81c0.27-39,0.61-78.01,0.73-117.01c0.02-5.3-0.38-10.79-1.82-15.85
			c-0.76-2.67-4.04-4.73-6.42-6.8c-7.03-6.09-14.18-12.04-21.26-18.06c-0.71-0.61-1.57-1.27-1.87-2.08
			c-0.54-1.49-1.23-3.26-0.85-4.64c0.21-0.78,2.42-1.4,3.74-1.42c7.14-0.14,14.29-0.06,21.43-0.06
			C1043.38,303.36,1043.38,303.62,1043.38,303.89z M1075.39,366.45c0.07,0.01,0.13,0.01,0.2,0.02c0,1.08-0.01,2.15,0,3.23
			c0.04,4.63,2.7,7.93,6.26,7.77c3.03-0.14,5.7-3.93,5.91-7.88c0.41-7.6,1.03-15.19,1.55-22.78c0.29-4.13,0.82-8.27,0.76-12.39
			c-0.05-3.18-2.16-5.22-5.37-5.38c-3.27-0.17-6.19,1.37-6.54,4.7C1076.99,344.61,1076.28,355.54,1075.39,366.45z"/>
		<path class="st3" d="M1079.1,902.38c2.54,7.63,5.31,14.04,6.73,20.74c1.74,8.2,5.81,15.1,9.72,22.26
			c2.95,5.38,7.14,9.31,12.49,11.52c6.86,2.83,14.14,4.6,21.22,6.9c1.2,0.39,2.28,1.16,3.65,1.86
			c-20.97,9.55-39.09,20.43-45.22,43.72c-2.06,7.82-4.46,15.51-2.63,23.86c0.46,2.09-1.26,4.68-2.11,6.99
			c-0.18,0.49-1.08,1.19-1.38,1.07c-0.63-0.24-1.46-0.89-1.55-1.48c-1.25-7.84-2.86-15.67-3.45-23.57
			c-1.66-21.96-13.29-36.68-36.91-41.95c-3.21-0.72-6.54-0.85-11.14-1.41c2.45-1.81,4.13-3.57,6.18-4.48
			c6.23-2.76,12.81-4.8,18.89-7.84c10.3-5.15,15.99-14.33,18.59-25.06c2.36-9.73,3.37-19.78,5.08-29.66
			C1077.45,904.73,1078.37,903.72,1079.1,902.38z M1080.27,944.32c0.38,6.71,3.15,10.97,6.64,14.71c1.16,1.24,3.27,1.9,5.04,2.16
			c1.04,0.15,2.63-0.73,3.29-1.65c0.51-0.7,0.34-2.38-0.16-3.27c-2.47-4.35-4.98-8.7-7.85-12.79c-0.97-1.38-3.26-3.02-4.48-2.71
			C1081.45,941.11,1080.71,943.61,1080.27,944.32z M1101.32,960.64c-1.45,2.17-3.05,3.51-2.85,4.5c0.26,1.29,2.21,3.4,2.94,3.21
			c1.51-0.39,2.7-2.05,4.02-3.19C1104.33,963.96,1103.23,962.75,1101.32,960.64z"/>
		<path class="st2" d="M1072.25,280.76c-1.11-1.68-2.13-2.55-2.29-3.56c-1.03-6.44-1.79-12.92-2.78-19.37
			c-2.54-16.64-12.98-25.79-28.56-30.21c-2.34-0.66-4.39-2.34-6.58-3.54c2.38-0.89,4.7-2.3,7.15-2.57
			c9.78-1.04,17.57-5.6,23.11-13.42c6.03-8.5,9.7-18.18,11.64-28.45c0.32-1.68,0.37-3.43,0.89-5.04c0.31-0.94,1.3-1.67,1.98-2.49
			c0.67,0.69,1.67,1.27,1.95,2.09c2.53,7.51,4.64,15.16,7.43,22.57c3.9,10.39,9.29,19.96,18.96,26.13
			c3.74,2.39,8.13,3.75,12.15,5.73c0.99,0.49,1.69,1.59,2.52,2.41c-1.11,0.31-2.21,0.71-3.34,0.92c-3.62,0.68-7.45,0.76-10.86,2.01
			c-16.45,6.01-24.53,19.2-29.19,35.09c-0.81,2.76-1.02,5.69-1.75,8.48C1074.47,278.46,1073.49,279.19,1072.25,280.76z
			 M1090.17,217.48c-1.64-3.13-3.31-7.57-6.06-11.17c-2.55-3.33-6.35-2.23-9.04,1.23c-3.59,4.62,3.48,17.06,8.71,17.1
			C1087.01,224.67,1090.07,221.95,1090.17,217.48z"/>
		<path class="st4" d="M586.64,515.58c5.91-4.56,11.82-9.13,17.74-13.69C598.47,506.46,592.56,511.02,586.64,515.58z"/>
		<path class="st4" d="M302.68,318.51c4.12,0.61,8.23,1.25,12.36,1.82c3.68,0.51,7.37,0.96,11.06,1.44c0.03,0.47,0.07,0.94,0.1,1.41
			C317.97,323.57,310.42,320.55,302.68,318.51z"/>
		<path class="st5" d="M326.19,323.18c-0.03-0.47-0.07-0.94-0.1-1.41c5.68,0.75,11.38,1.4,17.02,2.33c0.93,0.15,1.67,1.53,2.49,2.34
			C339.14,325.35,332.67,324.27,326.19,323.18z"/>
		<path class="st4" d="M356.91,628.98c1.52-0.85,2.95-2.08,4.59-2.48c3.56-0.89,7.23-1.35,10.85-1.99
			C367.21,626,362.06,627.49,356.91,628.98z"/>
		<path class="st5" d="M323.13,628.91c3.36,0.47,6.72,0.97,10.08,1.4c2.26,0.29,4.53,0.5,6.79,0.75c-4.68,0.41-9.36,1.01-14.05,1.06
			C325.02,632.13,324.07,630.04,323.13,628.91z"/>
		<path class="st6" d="M875.69,672.04c-5.2,0.02-10.4,0.04-15.6,0.07c0.49-0.57,0.95-1.62,1.47-1.65c4.13-0.21,8.28-0.3,12.42-0.21
			C874.56,670.26,875.12,671.41,875.69,672.04z"/>
		<path class="st7" d="M309.15,275.54c-5.95,1.06-11.89,2.12-17.84,3.18c0.1-0.24,0.18-0.68,0.31-0.7
			C297.47,277.17,303.31,276.36,309.15,275.54z"/>
		<path class="st8" d="M754.27,531.7c-4.92,0.19-9.84,0.38-14.76,0.57C744.43,532.07,749.35,531.88,754.27,531.7z"/>
		<path class="st7" d="M845.57,50.67c-1.22,0.57-2.4,1.53-3.65,1.62c-3.29,0.24-6.61,0.11-9.92,0.12c1.05-0.52,2.08-1.42,3.17-1.5
			C838.62,50.67,842.1,50.73,845.57,50.67z"/>
		<path class="st9" d="M638.38,329.1c-1.5-1.71-3.01-3.42-4.51-5.13C635.38,325.68,636.88,327.39,638.38,329.1z"/>
		<path class="st10" d="M798.79,87.05c2.24-2.62,4.77-1.69,7.32-0.61C803.67,86.65,801.23,86.85,798.79,87.05z"/>
		<path class="st11" d="M538.7,740.39c0.35,2.49,0.71,4.98,1.06,7.46C539.41,745.37,539.05,742.88,538.7,740.39z"/>
		<path class="st11" d="M761.49,729.1c2.18-0.26,4.36-0.53,6.54-0.79C765.85,728.57,763.67,728.83,761.49,729.1z"/>
		<path class="st4" d="M374.6,623.87c1.98-0.94,3.95-1.89,5.93-2.83C378.55,621.98,376.58,622.92,374.6,623.87z"/>
		<path class="st12" d="M477.51,267.43c-1.92-0.17-3.84-0.34-5.76-0.51C473.68,267.09,475.59,267.26,477.51,267.43z"/>
		<path class="st9" d="M630.57,320.72c-1.43-1.25-2.85-2.51-4.28-3.76C627.72,318.21,629.15,319.47,630.57,320.72z"/>
		<path class="st12" d="M468.68,266.93c-1.43,1.94-2.83,1.91-4.18-0.08C465.89,266.88,467.28,266.91,468.68,266.93z"/>
		<path class="st4" d="M607.1,499.69c0.98-0.88,1.95-1.77,2.93-2.65C609.05,497.92,608.08,498.8,607.1,499.69z"/>
		<path class="st12" d="M350.51,270.16c-1.37,0.21-2.74,0.43-4.11,0.64C347.77,270.59,349.14,270.37,350.51,270.16z"/>
		<path class="st12" d="M344.05,271.03c-1.37,0.21-2.74,0.41-4.12,0.62C341.31,271.44,342.68,271.24,344.05,271.03z"/>
		<path class="st8" d="M763.51,576.2c-0.16,1.15-0.32,2.29-0.48,3.44C763.19,578.49,763.35,577.35,763.51,576.2z"/>
		<path class="st4" d="M352.03,629.74c0.84-0.15,1.67-0.31,2.51-0.46C353.7,629.43,352.86,629.59,352.03,629.74z"/>
		<path class="st7" d="M437.87,266.05c-1.1-0.01-2.19-0.01-3.29-0.02C435.68,266.04,436.78,266.05,437.87,266.05z"/>
		<path class="st8" d="M762.99,527.77c-0.45,1.14-0.91,2.28-1.36,3.42C762.08,530.05,762.54,528.91,762.99,527.77z"/>
		<path class="st9" d="M633.01,323.14c-0.8-0.79-1.6-1.59-2.4-2.38C631.41,321.55,632.21,322.34,633.01,323.14z"/>
		<path class="st12" d="M462.2,266.91c-0.85,1.82-1.71,1.84-2.58,0.01C460.48,266.92,461.34,266.92,462.2,266.91z"/>
		<path class="st7" d="M441.91,266.63c-0.82-0.23-1.64-0.45-2.46-0.68C440.27,266.18,441.09,266.41,441.91,266.63z"/>
		<path class="st7" d="M404.65,265.8c-0.81,0.04-1.61,0.07-2.42,0.11C403.04,265.87,403.84,265.83,404.65,265.8z"/>
		<path class="st8" d="M728.4,532.97c-0.83,0.17-1.66,0.33-2.49,0.5C726.74,533.3,727.57,533.14,728.4,532.97z"/>
		<path class="st7" d="M314.09,274.84c-0.87,0.13-1.74,0.26-2.61,0.39C312.35,275.1,313.22,274.97,314.09,274.84z"/>
		<path class="st8" d="M762.24,570.18c0.37,0.46,0.73,0.92,1.1,1.38C762.98,571.1,762.61,570.64,762.24,570.18z"/>
		<path class="st7" d="M422.54,265.66c-0.59-0.01-1.19-0.01-1.78-0.02C421.36,265.65,421.95,265.66,422.54,265.66z"/>
		<path class="st4" d="M605.26,501.04c0.61-0.45,1.22-0.89,1.82-1.34C606.48,500.14,605.87,500.59,605.26,501.04z"/>
		<path class="st4" d="M611.74,495.38c0.62-0.44,1.24-0.88,1.86-1.32C612.98,494.5,612.36,494.94,611.74,495.38z"/>
		<path class="st5" d="M851.21,782.59c0-0.52,0.01-1.03,0.01-1.55C851.22,781.56,851.21,782.08,851.21,782.59z"/>
		<path class="st7" d="M416.88,265.64c-0.59,0.01-1.18,0.03-1.78,0.04C415.7,265.67,416.29,265.66,416.88,265.64z"/>
		<path class="st12" d="M337.58,271.85c-0.57,0.15-1.15,0.29-1.72,0.44C336.43,272.14,337.01,272,337.58,271.85z"/>
		<path class="st4" d="M619.12,489.06c0.28-0.26,0.56-0.52,0.84-0.78C619.68,488.54,619.4,488.8,619.12,489.06z"/>
		<path class="st13" d="M1871.85,348.5c0.35,9.24-2.27,17.11-10.11,22.85c-12.59,9.22-28.77,4.05-34.77-8.93
			c-5.16-11.16-8.73-23.05-13.29-34.51c-1.72-4.32-4-8.47-6.42-12.46c-7.25-11.94-14.41-23.95-22.18-35.55
			c-4.69-6.99-10.72-13.06-15.67-19.89c-5.51-7.59-10.82-15.37-15.59-23.43c-7.5-12.67,2.4-29.15,17.13-29.86
			c11.84-0.57,21.51,3.56,29.1,12.09c10.34,11.61,20.82,23.23,29.9,35.81c9.17,12.69,17.12,26.31,24.85,39.95
			c8.37,14.77,14.57,30.5,17.01,47.46C1872.12,344.16,1871.85,346.35,1871.85,348.5z"/>
		<path class="st14" d="M1858.51,439.75c-14.51,1.24-24.4-17.38-18.84-29.66c6.36-14.03,22.96-17.87,32.85-10.16
			c4.61,3.59,10.88,14.32,7.27,21.83c-2.49,5.17-3.69,11.23-9.25,14.22c-3.67,1.97-7.71,3.25-11.59,4.83
			C1858.8,440.46,1858.65,440.1,1858.51,439.75z"/>
		<path class="st13" d="M129.5,852.28c-0.09,11.11-10.38,18.16-19.32,13.98c-11.59-5.41-21.93-12.64-28.53-24.03
			c-5.24-9.04-10.59-18.05-15.23-27.4c-5.19-10.45,2.08-21.98,13.23-21.69c6.06,0.16,9.83,3.76,12.58,8.74
			c4.2,7.62,8.45,15.22,12.54,22.9c4.21,7.9,11.88,11.85,18.78,16.65C127.88,844.46,129.21,848.7,129.5,852.28z"/>
		<path class="st15" d="M148.33,901.5c-8.27-0.01-14-5.68-13.98-13.84c0.01-8.44,6.29-15.33,13.92-15.27
			c7.81,0.06,14.42,7.12,14.4,15.39C162.65,895.42,156.29,901.51,148.33,901.5z"/>
		<path class="st15" d="M637.78,352.76c0,1.61-0.08,2.56,0.01,3.5c0.27,2.77-0.21,5.63-3.07,6.28c-3.23,0.73-7.08,1.78-9.55-1.96
			c-2.06-3.13-4.06-6.31-5.93-9.55c-4.19-7.25-10.52-12.42-16.67-17.85c-4.06-3.59-7.8-7.58-11.4-11.64
			c-2.24-2.53-1.56-8.68,0.76-11.12c3.79-3.99,4.42-3.14,10.57,0.3c11.37,6.36,20.88,14.93,27.64,26.27c0.4,0.68,1.07,1.2,1.64,1.77
			C635.82,342.82,638.78,347.32,637.78,352.76z"/>
		<path class="st15" d="M417.61,352.5c0-1.61,0.07-3.23-0.02-4.84c-0.18-3.26,0.49-5.98,4.29-6.55c4.5-0.68,6.42,0.51,7.2,5.05
			c0.98,5.77,1.48,11.62,2.31,17.42c0.84,5.92,1.7,11.84,2.78,17.72c0.79,4.3-0.52,7.09-4.26,8.15c-3.58,1.01-7.13-0.67-8.22-4.49
			c-1.35-4.72-2.56-9.55-3.14-14.41c-0.71-5.97-0.72-12.02-1.03-18.04C417.55,352.51,417.58,352.5,417.61,352.5z"/>
		<path class="st14" d="M378,121.85c1.62,1.45,3.15,2.41,4.13,3.77c4.51,6.28,8.87,12.68,13.29,19.02c0.77,1.1,1.73,2.09,2.34,3.27
			c1.24,2.4,3.5,4.73,0.54,7.56c-3.49,3.34-5.06,3.61-9.11,0.85c-8.31-5.65-12.72-14.1-15.81-23.22c-0.81-2.39,0.23-5.56,0.95-8.23
			C374.61,123.81,376.35,123.14,378,121.85z"/>
		<path class="st10" d="M643.95,374.21c6.03,0,9.2,2.59,9.16,7.48c-0.06,6.3-2.84,9.52-8.23,9.51c-6.16-0.02-9.65-3.76-9.6-10.28
			C635.33,375.89,637.51,374.21,643.95,374.21z"/>
		<path class="st15" d="M270.8,327.02c-0.89,1.13-1.55,2.76-2.64,3.13c-1.34,0.46-3.78,0.48-4.46-0.36
			c-4.11-5.05-8.01-10.29-11.56-15.75c-0.61-0.94,0.52-4.4,1.36-4.61c1.66-0.41,4.36,0.02,5.44,1.2c3.69,4.01,6.9,8.46,10.21,12.81
			C269.83,324.34,270.13,325.52,270.8,327.02z"/>
		<path class="st9" d="M511.5,333.8c-3.89-2.17-7.9-2.85-12.49-2.9c-6.2-0.06-12.38-1.85-18.59-2.78c-2.21-0.33-4.5-0.16-6.7-0.52
			c-0.97-0.16-1.82-1.06-2.73-1.62c2.32-0.19,4.7-0.84,6.93-0.48c5.95,0.95,11.81,2.42,17.74,3.49c3.87,0.7,7.86,0.81,11.68,1.68
			C508.89,331.02,510.13,332.71,511.5,333.8z"/>
		<path class="st10" d="M410.35,166.53c-0.07,2.64-1.37,3.96-4.03,3.93c-2.87-0.04-4.61-1.57-4.82-4.32
			c-0.21-2.68,1.54-3.85,4.1-3.75C408.26,162.49,410.39,163.3,410.35,166.53z"/>
		<path class="st4" d="M491.29,504.47c7.02-5.38,14.04-10.76,21.06-16.13c-0.8,1.05-1.43,2.32-2.43,3.11
			c-4.84,3.82-9.74,7.56-14.71,11.22C494.07,503.5,492.6,503.88,491.29,504.47z"/>
		<path class="st12" d="M558.54,415.53c0-8.65-0.01-17.3-0.01-25.95c0.49,0.82,1.41,1.63,1.42,2.46c0.12,7,0.12,14.01,0.01,21.01
			C559.94,413.88,559.03,414.7,558.54,415.53z"/>
		<path class="st16" d="M459.71,325.02c-0.93,0.77-1.81,2.11-2.79,2.2c-3.16,0.26-6.36,0.06-9.54,0.03
			c1.18-0.79,2.29-2.14,3.54-2.27C453.82,324.68,456.78,324.97,459.71,325.02z"/>
		<path class="st4" d="M488.64,506.66c0.88-0.73,1.76-1.46,2.64-2.19C490.4,505.2,489.52,505.93,488.64,506.66z"/>
		<path class="st15" d="M601.13,679.72c-0.04-11.04,1.76-21.61,7.48-31.22c1.01-1.69,2.43-3.44,4.1-4.33
			c1.73-0.92,4.51-1.73,5.92-0.95c1.96,1.08,4.13,3.58,4.36,5.68c0.65,5.84,0.18,11.63-2.08,17.37c-1.67,4.25-1.97,9.08-2.57,13.7
			c-0.9,6.96-1.66,13.94-2.21,20.94c-0.2,2.49,0.33,5.04,0.61,7.55c0.39,3.62-1.3,5.64-4.78,6.17c-3.38,0.52-6.61-1.47-7.38-4.76
			c-0.97-4.13-1.91-8.31-2.36-12.52C601.61,691.5,601.47,685.6,601.13,679.72z"/>
		<path class="st15" d="M835.45,764.89c-3.68,0.12-5.55-1.74-6.7-4.85c-5.24-14.17-5.05-28.92-4.9-43.68
			c0.05-4.52,3.05-8.01,7.05-8.13c3.43-0.11,7.22,4.15,7.59,7.95c1.2,12.49,2.65,24.96,3.86,37.45
			C842.89,759.23,840.64,765.48,835.45,764.89z"/>
		<path class="st15" d="M808.45,558.62c1.08-10.15,5.26-19.1,12.52-26.18c4.04-3.94,10.19,0.37,11.65,6.57
			c0.64,2.71,0.35,6.12-0.78,8.66c-2.5,5.59-5.51,11.01-8.87,16.13c-2.05,3.12-4.95,5.73-9.55,3.89
			C809.14,565.98,807.91,562.93,808.45,558.62z"/>
		<path class="st10" d="M834.39,778.37c-0.01-5.1,2.14-7.97,5.89-7.86c3.11,0.09,6.26,3.63,6.31,7.09c0.06,4.69-2.31,7.45-6.42,7.48
			C835.77,785.11,834.39,783.51,834.39,778.37z"/>
		<path class="st13" d="M1361.27,366.76c0,0.81,0.07,1.62-0.01,2.42c-0.33,3.37-3.31,6.7-5.97,5.64c-2.44-0.97-5.31-3.54-5.92-5.93
			c-1.83-7.21-2.71-14.66-3.81-22.04c-0.33-2.22-0.89-4.83-0.05-6.67c0.79-1.72,3.51-3.9,4.98-3.64c2.18,0.39,5.23,2.42,5.76,4.35
			c2.33,8.46,3.88,17.13,5.72,25.73C1361.74,366.66,1361.5,366.71,1361.27,366.76z"/>
		<path class="st10" d="M1355.14,386.37c3.29-0.03,6.03,2.42,6.13,5.49c0.11,3.46-2.45,6.53-5.52,6.63
			c-3.74,0.12-6.65-2.73-6.61-6.48C1349.17,388.97,1351.89,386.41,1355.14,386.37z"/>
		<path class="st14" d="M1113.63,689.94c-0.04,4.52-2.45,7.5-5.73,7.74c-2.73,0.21-5.97-3.31-6.46-6.52
			c-0.79-5.14-1.93-10.22-2.79-15.34c-1.01-6.04-1.99-12.1-2.79-18.17c-0.53-4.06,1.81-7.17,5.34-7.61
			c3.41-0.43,6.11,2.19,6.79,6.26c1.76,10.51,3.62,21.01,5.43,31.51C1113.59,688.73,1113.61,689.67,1113.63,689.94z"/>
		<path class="st14" d="M976.84,678.56c0.08,4.66-2.31,7.58-5.71,7.8c-3.21,0.21-5.7-2.14-6.42-5.91
			c-1.18-6.14-2.23-12.32-3.73-18.39c-0.93-3.77,1-5.72,3.76-7c3.09-1.43,6.96,0.3,7.82,3.58c1.42,5.4,2.34,10.93,3.49,16.4
			C976.34,676.48,976.69,677.9,976.84,678.56z"/>
		<path class="st10" d="M1133.04,839.59c-0.02,2.46-4.11,6.19-6.64,6.05c-2.94-0.16-6.41-4-6.29-6.94c0.11-2.68,3.08-5.15,6.17-5.14
			C1130.09,833.58,1133.06,836.24,1133.04,839.59z"/>
		<path class="st10" d="M971.19,704.19c-4.36,0.02-6.49-1.73-6.48-5.33c0.01-3.32,2.56-5.98,5.72-5.98c3.48,0,6.35,2.68,6.4,5.97
			C976.9,702.1,974.71,704.18,971.19,704.19z"/>
		<path class="st13" d="M941.18,234.26c1.09,11.05,2.15,22.1,3.27,33.15c0.37,3.68-1.84,6.82-5.28,7.32
			c-3.17,0.46-6.53-1.88-6.79-5.37c-0.96-12.82-1.79-25.65-2.4-38.49c-0.19-4.12,0.48-8.28,0.72-12.42
			c0.19-3.21,2.84-5.88,5.92-5.92c2.75-0.03,5.35,2.69,5.39,5.88c0.07,5.25,0.02,10.51,0.02,15.77
			C941.76,234.2,941.47,234.23,941.18,234.26z"/>
		<path class="st15" d="M943.66,292.07c0.05,3.09-2.7,6.11-5.62,6.16c-3.57,0.06-6.37-2.62-6.51-6.22
			c-0.13-3.47,2.43-6.61,5.46-6.71C940.07,285.19,943.6,288.79,943.66,292.07z"/>
		<path class="st14" d="M755.94,291.74c5.27,0.15,8.17,3.91,6.66,7.59c-2.6,6.33-5.76,12.43-8.47,18.72
			c-2.07,4.79-3.61,9.82-5.78,14.56c-1.39,3.04-3.24,6.25-7.6,4.91c-3.65-1.12-5.37-4.63-3.52-9.28c4.4-11.07,9.19-22,14.19-32.82
			C752.29,293.55,754.94,292.52,755.94,291.74z"/>
		<path class="st14" d="M848.32,310.72c-1.79,4.2-3.32,8.54-5.48,12.54c-1.44,2.67-4.15,3.32-6.96,1.58
			c-2.91-1.81-4.13-4.77-2.71-7.64c3.81-7.68,1.85-14.48-2.16-21.25c-2.52-4.25-1.72-8.41,2.14-9.86c1.54-0.58,4.17-0.32,5.38,0.67
			c5.21,4.28,7.99,9.92,8.06,16.82c0.02,2.25,0.53,4.5,0.82,6.74C847.71,310.45,848.02,310.59,848.32,310.72z"/>
		<path class="st15" d="M745.37,356.95c-0.01,3.2-2.86,5.89-6.31,5.96c-3.65,0.08-6.62-2.63-6.61-6.05c0-3.39,3.04-6.18,6.61-6.07
			C741.81,350.88,745.38,354.36,745.37,356.95z"/>
		<path class="st13" d="M1075.39,366.45c0.89-10.91,1.6-21.84,2.76-32.73c0.35-3.33,3.28-4.87,6.54-4.7
			c3.21,0.16,5.33,2.21,5.37,5.38c0.06,4.13-0.47,8.26-0.76,12.39c-0.52,7.59-1.14,15.18-1.55,22.78c-0.22,3.95-2.88,7.74-5.91,7.88
			c-3.56,0.17-6.22-3.13-6.26-7.77c-0.01-1.08,0-2.15,0-3.23C1075.52,366.46,1075.46,366.46,1075.39,366.45z"/>
		<path class="st15" d="M1080.27,944.32c0.45-0.71,1.19-3.21,2.49-3.54c1.22-0.31,3.51,1.33,4.48,2.71
			c2.86,4.09,5.38,8.44,7.85,12.79c0.5,0.89,0.67,2.57,0.16,3.27c-0.66,0.91-2.26,1.8-3.29,1.65c-1.77-0.26-3.88-0.92-5.04-2.16
			C1083.42,955.29,1080.65,951.03,1080.27,944.32z"/>
		<path class="st10" d="M1101.32,960.64c1.92,2.12,3.01,3.32,4.1,4.53c-1.32,1.14-2.51,2.8-4.02,3.19
			c-0.73,0.19-2.68-1.92-2.94-3.21C1098.27,964.15,1099.86,962.81,1101.32,960.64z"/>
		<path class="st15" d="M1090.17,217.48c-0.1,4.47-3.16,7.19-6.39,7.17c-5.23-0.04-12.3-12.48-8.71-17.1
			c2.69-3.46,6.49-4.57,9.04-1.23C1086.86,209.92,1088.52,214.35,1090.17,217.48z"/>
	</g>
</g>
</svg>
